# xmcd
#
# Track frame offsets: 
#        150
#        19673
#        42012
#        64107
#        82032
#        104320
#        116858
#        139302
#        155372
#        175850
#        199002
#
# Disc length: 2844 seconds
#
# Revision: 0
# Processed by: cddbd v1.5.1PL2 Copyright (c) Steve Scherf et al.
# Submitted via: ExactAudioCopy v0.95a5
#
DISCID=910b1a0b
DTITLE=ELECTRONICS TUBE - 烧HiFi 
DYEAR=1900
DGENRE=HiFi
TTITLE0=01 新不了情
TTITLE1=02 最后的倾诉
TTITLE2=03 孔雀飞来
TTITLE3=04 鸽子
TTITLE4=05 康定情歌
TTITLE5=06 被遗忘的时光
TTITLE6=07 城里的月光
TTITLE7=08 七里香
TTITLE8=09 篝火
TTITLE9=10 回到拉萨
TTITLE10=11 红蜻蜓
EXTD=
EXTT0=
EXTT1=
EXTT2=
EXTT3=
EXTT4=
EXTT5=
EXTT6=
EXTT7=
EXTT8=
EXTT9=
EXTT10=
PLAYORDER=
